<svg xmlns="http://www.w3.org/2000/svg" width="1280" height="1248"><path d="M0 0 C1.73687007 -0.00209274 3.47373926 -0.00505999 5.21060655 -0.00880873 C9.94467272 -0.01653 14.6786563 -0.01197247 19.412721 -0.00525283 C24.57782829 -0.0001484 29.74292358 -0.00671148 34.90802914 -0.01173949 C43.94788045 -0.01894302 52.98770784 -0.01875597 62.02756023 -0.01364517 C75.47042375 -0.00606581 88.91326718 -0.00995517 102.35613057 -0.01606179 C124.97751792 -0.02597449 147.59889491 -0.02635642 170.22028255 -0.02090836 C171.25213441 -0.02065997 171.25213441 -0.02065997 172.30483175 -0.02040657 C172.99384427 -0.02024071 173.6828568 -0.02007485 174.39274849 -0.01990396 C195.40702433 -0.01485214 216.4212963 -0.01355734 237.43557262 -0.01594925 C238.844275 -0.01610421 240.25297738 -0.01625852 241.66167975 -0.01641219 C247.3230698 -0.01703316 252.98445985 -0.01767049 258.64584989 -0.01833172 C274.47063169 -0.02016549 290.2954135 -0.02130687 306.12019539 -0.02190399 C306.84074608 -0.02193128 307.56129677 -0.02195857 308.30368233 -0.02198669 C331.25448032 -0.02280493 354.20527696 -0.02055314 377.15607452 -0.01620483 C377.90017114 -0.01606434 378.64426775 -0.01592384 379.41091274 -0.01577908 C391.49358111 -0.01348935 403.57624944 -0.01105035 415.65891777 -0.00859874 C463.57382695 0.00111298 511.48872494 0.00066317 559.40363407 -0.00905991 C571.47910371 -0.01150241 583.55457336 -0.01392457 595.63004303 -0.01620483 C596.37363694 -0.01634573 597.11723084 -0.01648663 597.8833579 -0.01663179 C620.80992964 -0.02094611 643.73650045 -0.02277234 666.66307259 -0.02190399 C667.74311921 -0.02186324 667.74311921 -0.02186324 668.84498496 -0.02182166 C684.65297502 -0.02119662 700.46096498 -0.01992918 716.26895494 -0.01808299 C721.92551563 -0.01742474 727.58207632 -0.01679857 733.23863701 -0.01618156 C734.64576289 -0.01602679 736.05288876 -0.01586933 737.46001463 -0.01570917 C758.46640638 -0.01332486 779.47279374 -0.0153493 800.47918494 -0.02040657 C801.16700338 -0.02057216 801.85482182 -0.02073775 802.56348324 -0.02090836 C803.59329651 -0.0211564 803.59329651 -0.0211564 804.64391408 -0.02140946 C827.83130432 -0.02693344 851.01868358 -0.02487768 874.2060731 -0.01434687 C887.5660107 -0.00847921 900.92592164 -0.00808387 914.28585855 -0.01563922 C923.21607379 -0.02013184 932.14626772 -0.01731864 941.07647981 -0.00862968 C946.16028653 -0.0038841 951.24404038 -0.00222044 956.32784539 -0.00944164 C960.96398636 -0.01595957 965.60002815 -0.01307586 970.23616206 -0.00308032 C971.89194493 -0.00108649 973.54773624 -0.00234322 975.20351229 -0.0074922 C990.3677344 -0.05125538 1006.2579695 0.25338776 1020.89753056 4.56418228 C1022.06795902 4.89228897 1022.06795902 4.89228897 1023.26203251 5.22702408 C1046.10422485 11.79000692 1065.83251625 22.79530882 1082.96003056 39.25168228 C1083.43150517 39.69205826 1083.90297977 40.13243423 1084.38874149 40.58615494 C1103.32138168 58.29316227 1115.96250574 80.85686259 1122.71003056 105.81418228 C1122.90886845 106.54483902 1123.10770634 107.27549576 1123.31256962 108.02829361 C1126.56714667 120.76050048 1127.25304729 133.33514387 1127.21450615 146.39809322 C1127.21690048 148.09874089 1127.22016854 149.79938751 1127.22422275 151.50003204 C1127.23280494 156.15682713 1127.22903208 160.81354114 1127.22316703 165.47033739 C1127.21898436 170.54297787 1127.22640567 175.61560389 1127.23231953 180.68824083 C1127.24107334 189.5734623 1127.24239655 198.45866071 1127.23881626 207.34388542 C1127.23350618 220.55684664 1127.23960766 233.76978557 1127.24789919 246.98274436 C1127.26272035 271.26858683 1127.26498913 295.55442025 1127.26257882 319.84026549 C1127.26224035 323.27925307 1127.26191826 326.71824065 1127.26161313 330.15722823 C1127.26152157 331.18189079 1127.26152157 331.18189079 1127.26142815 332.2272536 C1127.26015526 347.37826685 1127.26275946 362.52927868 1127.2661392 377.68029151 C1127.26690994 381.14173531 1127.26765468 384.60317913 1127.26840421 388.06462294 C1127.26870591 389.45388746 1127.26900779 390.84315197 1127.26930985 392.23241649 C1127.26945953 392.92106016 1127.26960921 393.60970382 1127.26976343 394.31921548 C1127.27006696 395.71217611 1127.27037164 397.10513673 1127.27067747 398.49809736 C1127.27934869 438.01478364 1127.28399574 477.53146867 1127.27972984 517.04815578 C1127.27965179 517.77963676 1127.27957373 518.51111774 1127.27949331 519.26476481 C1127.27862054 527.42120569 1127.27769127 535.57764656 1127.27674267 543.73408743 C1127.27665717 544.4704672 1127.27657166 545.20684698 1127.27648356 545.96554129 C1127.27577284 552.08354356 1127.27577284 552.08354356 1127.27544133 554.89945321 C1127.26990621 601.9951421 1127.27744654 649.09081139 1127.2962122 696.18649673 C1127.30093459 708.05282811 1127.30561518 719.9191595 1127.31004906 731.78549099 C1127.31032238 732.51619365 1127.3105957 733.24689632 1127.31087731 733.99974149 C1127.3192515 756.52843823 1127.32392854 779.05713335 1127.32475662 801.58583164 C1127.32478299 802.29336505 1127.32480936 803.00089846 1127.32483652 803.72987228 C1127.32537736 819.26353292 1127.32500472 834.79719344 1127.32379681 850.33085404 C1127.3233712 855.88934685 1127.32300607 861.44783968 1127.32266737 867.0063325 C1127.32258206 868.38908648 1127.32249313 869.77184045 1127.32240055 871.15459443 C1127.32095324 893.16528292 1127.32806856 915.17595806 1127.33940451 937.18664335 C1127.35106683 959.97863595 1127.35160395 982.77060992 1127.33956108 1005.56260397 C1127.33293208 1018.69611762 1127.33456455 1031.82956858 1127.3481496 1044.96307721 C1127.35639666 1053.74126526 1127.35369316 1062.51940637 1127.34217433 1071.29759061 C1127.33592053 1076.29549461 1127.33431041 1081.29327633 1127.34603766 1086.29117324 C1127.3566319 1090.84827988 1127.35313222 1095.40516147 1127.33893314 1099.96225632 C1127.33623047 1101.59054653 1127.33841957 1103.21885521 1127.34644028 1104.84712791 C1127.51510861 1141.63316784 1115.06426998 1176.14377891 1089.96003056 1203.25168228 C1089.4613245 1203.79421646 1088.96261845 1204.33675064 1088.44880009 1204.89572525 C1064.895419 1230.23289032 1031.02880062 1247.33161631 996.11561286 1248.70722066 C992.22301636 1248.78717568 988.33374556 1248.77870858 984.44060707 1248.75504684 C982.66364573 1248.7592329 980.88668783 1248.76516783 979.10973737 1248.77266431 C974.26893969 1248.78809901 969.42846534 1248.77899638 964.58767352 1248.7655525 C959.30518959 1248.7553396 954.02275249 1248.76847135 948.74027532 1248.77852583 C939.49586017 1248.79293002 930.25153856 1248.7925606 921.00711918 1248.78233719 C907.26004862 1248.76717578 893.51305664 1248.77495856 879.76598658 1248.78717042 C856.63234578 1248.80699398 833.49875116 1248.80776054 810.36510754 1248.79686356 C809.66168297 1248.79653237 808.95825841 1248.79620119 808.23351795 1248.79585997 C807.17667571 1248.7953624 807.17667571 1248.7953624 806.09848312 1248.79485477 C784.60843885 1248.78475041 763.11840975 1248.78216186 741.62836361 1248.78694534 C740.1876692 1248.78725526 738.74697479 1248.78756389 737.30628038 1248.78787122 C731.5162931 1248.78911316 725.72630582 1248.79038783 719.93631855 1248.79171028 C703.75216508 1248.7953778 687.56801156 1248.79766058 671.38385773 1248.79885483 C670.64694885 1248.79890941 669.91003998 1248.79896399 669.15080054 1248.79902023 C645.67959289 1248.80065666 622.20839052 1248.79615336 598.73718452 1248.78745651 C597.97623554 1248.78717552 597.21528656 1248.78689452 596.43127851 1248.78660501 C584.07502448 1248.78202556 571.71877057 1248.77714755 559.36251666 1248.77224431 C510.36286147 1248.75282092 461.36325001 1248.75372058 412.36359501 1248.77316666 C400.0146701 1248.77805168 387.66574518 1248.782896 375.31682014 1248.78745651 C374.55638332 1248.78773831 373.79594649 1248.7880201 373.01246612 1248.78831043 C349.56597556 1248.79693929 326.11948863 1248.80059149 302.67299652 1248.79885483 C301.93661962 1248.79880049 301.20024271 1248.79874615 300.44155136 1248.79869017 C284.27457316 1248.79744008 268.10759535 1248.79490518 251.94061754 1248.79121282 C246.15558197 1248.78989633 240.37054639 1248.788644 234.58551081 1248.78740997 C233.14643048 1248.78710042 231.70735015 1248.7867855 230.26826982 1248.78646519 C208.78636933 1248.7816969 187.30448594 1248.78574478 165.82258758 1248.79585997 C164.76757493 1248.79635675 164.76757493 1248.79635675 163.69124889 1248.79686356 C162.63819454 1248.79735965 162.63819454 1248.79735965 161.56386635 1248.79786577 C137.85124827 1248.80891462 114.13868526 1248.8048004 90.426071 1248.78374058 C76.76414923 1248.77200675 63.10233176 1248.77121237 49.44041273 1248.78632528 C40.30765634 1248.79531238 31.17498334 1248.78968087 22.04223929 1248.7723062 C16.84354873 1248.76281746 11.64506494 1248.75948228 6.4463811 1248.77393013 C-40.91096412 1248.8957403 -80.12732962 1239.80116262 -114.78606319 1205.53683853 C-136.77028633 1182.180745 -153.14936423 1149.58578859 -153.16877061 1117.00083959 C-153.17054562 1116.30076894 -153.17232063 1115.60069829 -153.17414943 1114.87941338 C-153.17887755 1112.53534051 -153.17651931 1110.19132949 -153.17419052 1107.8472538 C-153.17614429 1106.14172731 -153.17853345 1104.43620127 -153.18131849 1102.73067594 C-153.18771853 1098.02770597 -153.18788011 1093.32475308 -153.18704108 1088.62177959 C-153.18721058 1083.51120259 -153.19311673 1078.40063172 -153.19828194 1073.29005778 C-153.20761117 1063.14633347 -153.21153054 1053.00261352 -153.21380091 1042.85888546 C-153.21676217 1030.71141008 -153.22545917 1018.56394051 -153.23421519 1006.41646817 C-153.25506443 977.05264259 -153.26553389 947.68881667 -153.2743448 918.32498572 C-153.27727941 908.59894068 -153.28064939 898.87289586 -153.28431201 889.14685106 C-153.2845703 888.46055824 -153.28482859 887.77426542 -153.28509471 887.06717584 C-153.28614096 884.29056127 -153.28718938 881.51394669 -153.28824053 878.73733212 C-153.30620614 831.23830596 -153.32158383 783.73927943 -153.32899956 736.24025035 C-153.32958353 732.50954435 -153.3301808 728.77883834 -153.33077718 725.04813234 C-153.3308953 724.30808768 -153.33101342 723.56804303 -153.33113512 722.80557278 C-153.33233249 715.30803326 -153.33354125 707.81049375 -153.33476765 700.31295423 C-153.33501289 698.80968971 -153.33525674 697.30642519 -153.33549922 695.80316067 C-153.34328604 647.54170302 -153.3656625 599.2802697 -153.39817565 551.01882268 C-153.42153032 516.34023127 -153.44307742 481.66164471 -153.45018196 446.98304558 C-153.45032898 446.26942193 -153.450476 445.55579829 -153.45062748 444.82054968 C-153.45381277 429.15232116 -153.45586334 413.48409269 -153.45685503 397.81586389 C-153.45726975 391.5110291 -153.45782464 385.20619433 -153.45841694 378.90135956 C-153.45847761 378.21135279 -153.45853828 377.52134603 -153.45860078 376.81042997 C-153.46061451 354.60896393 -153.47483638 332.40752667 -153.49536194 310.20607066 C-153.51654754 287.20903938 -153.52328413 264.21203986 -153.51348815 241.2149974 C-153.50827502 227.96416456 -153.51414191 214.7134459 -153.53602282 201.46262951 C-153.54954489 192.6034439 -153.54844143 183.74433676 -153.53562087 174.88515034 C-153.52873368 169.84247025 -153.52802225 164.80000824 -153.54518095 159.75734775 C-153.69523725 112.71947626 -144.49441262 75.22422624 -111.03996944 40.25168228 C-80.95885116 10.01251959 -41.43070884 -0.12863746 0 0 Z " fill="#FDFDFD" transform="translate(153.0399694442749,-0.2516822814941406)"></path><path d="M0 0 C0.89822873 -0.0060911 1.79645745 -0.01218221 2.72190523 -0.01845789 C5.74527241 -0.03516467 8.76822189 -0.03030075 11.79162598 -0.0255127 C13.95513346 -0.03284974 16.11863702 -0.0414349 18.28213501 -0.05117798 C24.17617867 -0.07347087 30.07008279 -0.0763198 35.96416283 -0.07443047 C40.89764282 -0.07431083 45.83109322 -0.08287472 50.76456499 -0.09120798 C63.09863089 -0.11158292 75.43261893 -0.11258268 87.76669604 -0.10540086 C99.07672412 -0.09951522 110.38650328 -0.12470964 121.69648504 -0.15988111 C132.00942665 -0.19077191 142.32226945 -0.20191611 152.63525629 -0.1980443 C158.78030382 -0.19599214 164.92511091 -0.20121197 171.07011414 -0.22593689 C223.6786502 -0.42083259 271.25507013 5.90798355 310.49572754 44.27331543 C311.15862793 44.93202637 311.82152832 45.5907373 312.5045166 46.26940918 C313.14034668 46.89976074 313.77617676 47.5301123 314.43127441 48.17956543 C317.57934881 51.37706817 320.21776531 54.37911398 322.3170166 58.39440918 C321.89927979 58.80690918 321.48154297 59.21940918 321.05114746 59.64440918 C319.11616633 61.55829696 317.18533859 63.47632589 315.2545166 65.39440918 C314.59773926 66.04280762 313.94096191 66.69120605 313.26428223 67.35925293 C312.2829834 68.33571777 312.2829834 68.33571777 311.28186035 69.33190918 C310.39421997 70.21169434 310.39421997 70.21169434 309.48864746 71.10925293 C307.64922317 73.044836 305.90998451 75.01853022 304.17077637 77.04284668 C299.90073558 81.9492413 295.3115989 86.50687069 290.6920166 91.08190918 C289.78628906 91.9838501 288.88056152 92.88579102 287.9473877 93.81506348 C284.58780354 97.16046362 281.22370398 100.5012931 277.85925293 103.84179688 C274.5506731 107.12732718 271.24599179 110.41674708 267.9420166 113.70690918 C266.65110107 114.9853772 266.65110107 114.9853772 265.33410645 116.28967285 C261.709651 119.89948764 258.15246184 123.51433242 254.8170166 127.39440918 C250.68523308 132.20085512 246.19332189 136.62400723 241.6920166 141.08190918 C240.78628906 141.9838501 239.88056152 142.88579102 238.9473877 143.81506348 C235.58780354 147.16046362 232.22370398 150.5012931 228.85925293 153.84179688 C225.5506731 157.12732718 222.24599179 160.41674708 218.9420166 163.70690918 C218.08140625 164.55922119 217.2207959 165.4115332 216.33410645 166.28967285 C212.08618071 170.52043948 208.02577601 174.82270526 204.11853027 179.36804199 C200.56000866 183.37071572 196.71525954 187.09630735 192.9107666 190.86315918 C192.02723511 191.74290405 191.14370361 192.62264893 190.23339844 193.52905273 C186.9572934 196.79097863 183.6766668 200.04833482 180.39569092 203.30535889 C177.16871123 206.50928178 173.94563581 209.71710034 170.7232666 212.92565918 C169.88453003 213.75609741 169.04579346 214.58653564 168.18164062 215.44213867 C164.61228673 218.99671264 161.11518434 222.55985152 157.83068848 226.3807373 C153.69351899 231.19105918 149.19791857 235.61945487 144.6920166 240.08190918 C143.78628906 240.9838501 142.88056152 241.88579102 141.9473877 242.81506348 C138.58780354 246.16046362 135.22370398 249.5012931 131.85925293 252.84179688 C128.5506731 256.12732718 125.24599179 259.41674708 121.9420166 262.70690918 C121.08140625 263.55922119 120.2207959 264.4115332 119.33410645 265.28967285 C115.709651 268.89948764 112.15246184 272.51433242 108.8170166 276.39440918 C104.68523308 281.20085512 100.19332189 285.62400723 95.6920166 290.08190918 C94.78628906 290.9838501 93.88056152 291.88579102 92.9473877 292.81506348 C89.58780354 296.16046362 86.22370398 299.5012931 82.85925293 302.84179688 C79.5506731 306.12732718 76.24599179 309.41674708 72.9420166 312.70690918 C72.08140625 313.55922119 71.2207959 314.4115332 70.33410645 315.28967285 C66.08618071 319.52043948 62.02577601 323.82270526 58.11853027 328.36804199 C54.56000866 332.37071572 50.71525954 336.09630735 46.9107666 339.86315918 C46.02723511 340.74290405 45.14370361 341.62264893 44.23339844 342.52905273 C40.9572934 345.79097863 37.6766668 349.04833482 34.39569092 352.30535889 C31.16871123 355.50928178 27.94563581 358.71710034 24.7232666 361.92565918 C23.88453003 362.75609741 23.04579346 363.58653564 22.18164062 364.44213867 C18.61228673 367.99671264 15.11518434 371.55985152 11.83068848 375.3807373 C7.69351899 380.19105918 3.19791857 384.61945487 -1.3079834 389.08190918 C-2.66657471 390.43482056 -2.66657471 390.43482056 -4.0526123 391.81506348 C-7.41219646 395.16046362 -10.77629602 398.5012931 -14.14074707 401.84179688 C-17.4493269 405.12732718 -20.75400821 408.41674708 -24.0579834 411.70690918 C-24.91859375 412.55922119 -25.7792041 413.4115332 -26.66589355 414.28967285 C-31.01883636 418.62503234 -35.22149334 423.02057543 -39.20973206 427.69506836 C-41.39892277 430.22021871 -43.74107027 432.54759075 -46.1204834 434.89440918 C-47.4179248 436.17831543 -47.4179248 436.17831543 -48.74157715 437.48815918 C-49.38224121 438.11722168 -50.02290527 438.74628418 -50.6829834 439.39440918 C-46.95220898 443.87133848 -43.09708225 448.06019479 -38.90563965 452.10925293 C-37.01665963 454.05135013 -35.25606681 456.03258186 -33.49157715 458.08581543 C-29.44174758 462.74930464 -25.08522152 467.06603411 -20.6829834 471.39440918 C-12.11690668 479.81675978 -12.11690668 479.81675978 -8.2454834 484.33190918 C-3.98992557 489.28365274 0.66828308 493.81505975 5.3170166 498.39440918 C14.94834771 507.88198908 14.94834771 507.88198908 18.6295166 512.20690918 C23.8311415 518.27344127 29.63725472 523.78128138 35.3170166 529.39440918 C37.61172635 531.66219775 39.90287036 533.93350626 42.1920166 536.20690918 C42.70264648 536.70924072 43.21327637 537.21157227 43.73937988 537.72912598 C46.47184596 540.44344643 49.06181547 543.22561085 51.57092285 546.14831543 C55.93111757 551.18202158 60.6510035 555.83428466 65.3795166 560.51940918 C66.33953035 561.47500288 67.29924113 562.43090102 68.25866699 563.38708496 C71.2752803 566.39238468 74.29583256 569.39370529 77.3170166 572.39440918 C80.82371811 575.87733929 84.32869126 579.3619742 87.82943726 582.85089111 C89.21587 584.23094051 90.60538958 585.60788662 91.99499512 586.98474121 C96.34083761 591.31384852 100.50857076 595.70413862 104.50402832 600.35656738 C108.20410274 604.51553873 112.20746858 608.38453555 116.1607666 612.30065918 C117.5789331 613.7130385 118.99709667 615.12542079 120.41509247 616.5379715 C122.88024792 618.99228419 125.34872169 621.44325451 127.8170166 623.89440918 C130.76687291 626.82378121 133.71609499 629.75377203 136.66137695 632.68774414 C138.48770089 634.50661531 140.31627021 636.3232357 142.14746094 638.13720703 C146.44870735 642.42149416 150.56781204 646.77209766 154.52319336 651.37573242 C158.07831978 655.37648952 161.92140776 659.09891538 165.7232666 662.86315918 C166.6067981 663.74290405 167.49032959 664.62264893 168.40063477 665.52905273 C171.20366794 668.31995424 174.00981576 671.1077015 176.8170166 673.89440918 C180.5180221 677.56839656 184.21533482 681.2460652 187.9107666 684.92565918 C188.74950317 685.75609741 189.58823975 686.58653564 190.45239258 687.44213867 C194.02174648 690.99671264 197.51884887 694.55985152 200.80334473 698.3807373 C204.94051421 703.19105918 209.43611463 707.61945487 213.9420166 712.08190918 C214.84774414 712.9838501 215.75347168 713.88579102 216.68664551 714.81506348 C219.56101229 717.67729482 222.438486 720.5363672 225.3170166 723.39440918 C229.11176998 727.1621525 232.90283041 730.93356463 236.6920166 734.70690918 C237.55262695 735.55922119 238.4132373 736.4115332 239.29992676 737.28967285 C243.54350069 741.51610526 247.59883434 745.81402881 251.5020752 750.35461426 C255.1347643 754.43735807 259.06048945 758.23780922 262.9420166 762.08190918 C263.84774414 762.9838501 264.75347168 763.88579102 265.68664551 764.81506348 C268.56101229 767.67729482 271.438486 770.5363672 274.3170166 773.39440918 C278.11176998 777.1621525 281.90283041 780.93356463 285.6920166 784.70690918 C286.55262695 785.55922119 287.4132373 786.4115332 288.29992676 787.28967285 C292.64007057 791.61228504 296.80145654 796.00856425 300.79309082 800.65454102 C302.81168821 802.95917644 304.97337576 805.08002705 307.1920166 807.19128418 C308.03119629 808.00468262 308.87037598 808.81808105 309.73498535 809.65612793 C311.48036546 811.33813569 313.2331971 813.01244005 314.99279785 814.67956543 C316.23609863 815.89192871 316.23609863 815.89192871 317.5045166 817.12878418 C318.26119629 817.85291504 319.01787598 818.5770459 319.79748535 819.32312012 C321.3170166 821.39440918 321.3170166 821.39440918 321.19470215 823.48522949 C319.76359808 826.59822916 317.45730753 828.93139693 315.1295166 831.39440918 C314.59270264 831.96473877 314.05588867 832.53506836 313.50280762 833.12268066 C290.47194067 857.16282879 257.52046635 876.18524799 223.76124573 878.76960754 C218.62351568 879.22257387 213.5343139 879.8878678 208.42857361 880.6047821 C176.63643019 885.03329793 144.80852428 887.89616983 112.7545166 889.58190918 C111.47635763 889.65104979 110.19819866 889.7201904 108.8813076 889.79142618 C43.23774433 893.24117613 -11.05099704 888.90027388 -61.56970215 843.56628418 C-77.09529063 829.49933914 -91.4536329 814.42138851 -105.4329834 798.83190918 C-106.29673789 797.87095825 -107.16049237 796.91000731 -108.05042124 795.91993666 C-127.55580559 774.17145725 -146.32148033 751.85420922 -163.94120121 728.54623699 C-170.7256879 719.55672515 -170.7256879 719.55672515 -178.88766861 711.83625698 C-182.09981974 709.25652385 -184.93191346 706.27618743 -187.83337402 703.35754395 C-188.49778503 702.69327896 -189.16219604 702.02901398 -189.84674072 701.34461975 C-192.01328761 699.17738358 -194.17628402 697.00664147 -196.3392334 694.83581543 C-197.85215696 693.32102418 -199.36530339 691.8064555 -200.87866211 690.292099 C-204.83950314 686.32746038 -208.79733042 682.35982667 -212.7545166 678.39154053 C-216.80175679 674.33402661 -220.85186905 670.27938172 -224.9017334 666.2244873 C-232.83161452 658.28391757 -240.75831161 650.34017758 -248.6829834 642.39440918 C-249.7994056 643.34493189 -250.91491595 644.29652568 -252.03004456 645.24856567 C-252.65134278 645.77836847 -253.27264101 646.30817127 -253.91276646 646.8540287 C-256.13594692 648.78856209 -258.22808479 650.8267011 -260.30407715 652.91784668 C-261.09362793 653.71062012 -261.88317871 654.50339355 -262.69665527 655.32019043 C-263.49651855 656.12843262 -264.29638184 656.9366748 -265.1204834 657.76940918 C-265.94741699 658.60085449 -266.77435059 659.4322998 -267.62634277 660.28894043 C-269.64753871 662.32181958 -271.66634675 664.35700881 -273.6829834 666.39440918 C-268.4636746 672.72124329 -262.73407402 678.47130952 -256.92346191 684.25158691 C-255.84012892 685.33299763 -254.75702568 686.41463854 -253.6741333 687.49649048 C-251.35279321 689.814684 -249.02991226 692.13131818 -246.70581245 694.44674492 C-243.02509605 698.1138677 -239.34826045 701.78486529 -235.67198181 705.45643616 C-227.20350528 713.91290037 -218.73001808 722.364338 -210.25646973 730.8157196 C-202.48898654 738.56298367 -194.72258533 746.31132432 -186.96023887 754.06373554 C-183.31152402 757.70749133 -179.66039047 761.34880019 -176.00733769 764.98820674 C-173.7284814 767.25956159 -171.45173665 769.53302421 -169.17553711 771.80704117 C-168.1263637 772.85435524 -167.07633267 773.90081105 -166.02534294 774.94630241 C-160.97155296 779.9745013 -156.03663846 785.0443458 -151.39356709 790.45798016 C-148.09381909 794.19338804 -144.52846626 797.67002471 -140.99377441 801.18127441 C-139.73403053 802.4388279 -139.73403053 802.4388279 -138.44883728 803.7217865 C-136.63901689 805.52782277 -134.82804291 807.33270364 -133.01602364 809.13653374 C-130.15245386 811.98728456 -127.29199665 814.84112367 -124.43247986 817.69593811 C-118.37312512 823.74424981 -112.30950804 829.78828008 -106.2454834 835.83190918 C-99.67324781 842.38210385 -93.10177186 848.93305087 -86.5351252 855.48884922 C-84.15690863 857.86289446 -81.77761241 860.23583754 -79.39587593 862.60635185 C-76.75053608 865.23981624 -74.10816878 867.876229 -71.46643066 870.51330566 C-70.67326447 871.30130554 -69.88009827 872.08930542 -69.06289673 872.90118408 C-68.3493956 873.61461472 -67.63589447 874.32804535 -66.90077209 875.06309509 C-66.27567025 875.68597632 -65.65056841 876.30885756 -65.00652409 876.95061398 C-63.6829834 878.39440918 -63.6829834 878.39440918 -63.6829834 879.39440918 C-100.19347009 879.46319152 -136.70394535 879.51599683 -173.21448358 879.54760517 C-177.53243415 879.55135694 -181.85038459 879.55523994 -186.16833496 879.5592041 C-187.02790104 879.55999103 -187.88746712 879.56077796 -188.77308066 879.56158874 C-202.66073902 879.57461525 -216.54835984 879.59825378 -230.43599598 879.62586757 C-244.70361713 879.65399867 -258.97121871 879.67060167 -273.23886645 879.67667466 C-282.03098039 879.68077518 -290.82298817 879.69368977 -299.6150694 879.71815858 C-305.65773395 879.73411108 -311.70034423 879.73878821 -317.74302827 879.73491331 C-321.22068843 879.73300643 -324.69816409 879.73576797 -328.17579079 879.7520256 C-368.66606339 879.91331472 -407.51258076 869.72899752 -437.6829834 841.39440918 C-438.64978027 840.49722168 -439.61657715 839.60003418 -440.6126709 838.67565918 C-460.09436747 819.91141885 -481.74940919 789.46749093 -483.00435638 761.38598824 C-483.05013305 760.39570031 -483.09590972 759.40541239 -483.14307356 758.38511574 C-483.18859122 757.30417165 -483.23410888 756.22322756 -483.28100586 755.10952759 C-483.33195546 753.95478624 -483.38290505 752.8000449 -483.43539858 751.61031139 C-483.57427696 748.40677455 -483.70871007 745.20309691 -483.83984137 741.99923444 C-483.92392289 739.9480082 -484.00936126 737.89684147 -484.09492111 735.84567642 C-485.18041716 709.65150401 -485.8702494 683.45092218 -486.3923392 657.23987306 C-486.47842599 652.92886124 -486.56755039 648.6179172 -486.65856934 644.30700684 C-486.67662787 643.44921764 -486.69468641 642.59142845 -486.71329218 641.70764564 C-486.97325244 629.67101869 -487.40420631 617.65127673 -487.97385573 605.62548146 C-488.95507768 584.90797728 -489.61755453 564.20716468 -489.6517334 543.46472168 C-489.65358737 542.66273413 -489.65544134 541.86074658 -489.65735149 541.03445637 C-489.69833656 500.6099835 -487.25160651 467.39812512 -457.35302734 437.02987671 C-445.03440121 425.09806283 -431.58367706 414.3332393 -417.13414717 405.09112465 C-406.82921653 398.44458487 -398.51636117 389.36586699 -389.9050293 380.72998047 C-388.50573439 379.3304053 -387.10621746 377.93105208 -385.70649862 376.53190088 C-381.87263927 372.69833631 -378.04189664 368.8616706 -374.21165729 365.02448964 C-370.07574092 360.88218768 -365.93691068 356.74279899 -361.79841614 352.60307312 C-354.63078965 345.43256231 -347.46494132 338.2602785 -340.30024719 331.08683777 C-329.93314086 320.70716862 -319.56279741 310.33073776 -309.19154972 299.95520693 C-304.35558306 295.11723431 -299.51977722 290.27910094 -294.68401337 285.4409256 C-293.95795224 284.71450295 -293.95795224 284.71450295 -293.21722322 283.9734051 C-281.70450895 272.45488366 -270.19337011 260.93478818 -258.68249512 249.41442871 C-258.17905261 248.91057256 -257.6756101 248.4067164 -257.15691175 247.88759188 C-249.49887462 240.2232586 -241.84091971 232.55884319 -234.1829834 224.89440918 C-226.01652613 216.72102274 -217.85003862 208.54766651 -209.68347168 200.37438965 C-209.18030344 199.87080682 -208.6771352 199.36722399 -208.15871944 198.84838108 C-196.66723628 187.3474465 -185.17530155 175.84696364 -173.68195343 164.34789276 C-173.19868934 163.86438768 -172.71542525 163.3808826 -172.2175168 162.88272585 C-167.39244603 158.05526951 -162.56729644 153.22789198 -157.74202921 148.40063201 C-146.92002492 137.57412203 -136.09978516 126.74585407 -125.28213274 115.91499555 C-118.19750692 108.82194445 -111.11111484 101.73066126 -104.02332962 94.64076722 C-99.93400563 90.55009824 -95.84551797 86.45860218 -91.75922585 82.3649044 C-88.01725291 78.61617547 -84.27297245 74.86976741 -80.52686054 71.1251747 C-79.17346147 69.77150457 -77.82091049 68.41698588 -76.46930426 67.06152564 C-64.22504702 54.78398263 -64.22504702 54.78398263 -58.20741302 49.69233632 C-55.9216921 47.7462319 -53.81028312 45.64132398 -51.69152832 43.51647949 C-50.80088181 42.62575745 -49.91023529 41.7350354 -48.99259949 40.81732178 C-48.04949649 39.86911284 -47.10644866 38.92084902 -46.16345215 37.97253418 C-45.17338269 36.98059411 -44.18308813 35.98887869 -43.19258118 34.99737549 C-40.60890208 32.40991384 -38.02824008 29.81946407 -35.44824219 27.22833252 C-32.81803701 24.58785072 -30.18496034 21.95023575 -27.55212402 19.31237793 C-22.93191781 14.68264918 -18.31419254 10.05046089 -13.69828796 5.41644287 C-13.03323746 4.74917175 -12.36818695 4.08190063 -11.6829834 3.39440918 C-11.22462805 2.86560638 -10.76627271 2.33680358 -10.29402781 1.79197645 C-7.43986333 -0.68398687 -3.60764991 -0.0227628 0 0 Z " fill="#373435" transform="translate(716.6829833984375,190.6055908203125)"></path><path d="M0 0 C1.17083639 -0.00170885 2.34167279 -0.0034177 3.54798907 -0.00517833 C6.75672643 -0.00787806 9.96529742 -0.00172351 13.17401516 0.00837779 C16.64961968 0.01708868 20.12521771 0.01408678 23.60083008 0.01257324 C29.60893358 0.01152918 35.61699333 0.01775543 41.62508583 0.02904892 C50.31156182 0.04536629 58.99801685 0.05051828 67.6845065 0.0530249 C81.78086847 0.05739226 95.87720717 0.07067523 109.97355652 0.08963013 C123.65942774 0.10801382 137.34529262 0.12215812 151.03117371 0.13064575 C152.29851071 0.13143392 152.29851071 0.13143392 153.59145049 0.13223802 C157.83040844 0.13484826 162.06936643 0.13737564 166.30832446 0.13986182 C201.42388388 0.16056444 236.53941629 0.19576371 271.654953 0.24050903 C270.04457977 4.25792405 267.21669739 6.95362298 264.19659138 9.942173 C263.34786783 10.79390869 263.34786783 10.79390869 262.48199835 11.66285115 C260.57394251 13.5752177 258.65880145 15.48032857 256.74365234 17.3855896 C255.36467815 18.76471977 253.9861448 20.14429086 252.60801619 21.524266 C248.8110043 25.32381654 245.00777166 29.11708721 241.20353353 32.9094007 C237.10502387 36.99724126 233.01228363 41.09085071 228.91886902 45.18379211 C221.82138154 52.27891446 214.72029109 59.37041428 207.61681557 66.45954132 C197.3381904 76.71750315 187.06554269 86.98143455 176.79447385 97.24696168 C160.12048888 113.91185333 143.44224935 130.5724808 126.76115417 147.23025513 C125.75217553 148.23782621 124.74319697 149.24539738 123.7342185 150.25296864 C122.98434794 151.00179279 122.98434794 151.00179279 122.21932848 151.76574471 C119.69033978 154.29120479 117.16135326 156.81666705 114.63237 159.34213257 C114.13092276 159.84288135 113.62947552 160.34363012 113.11283291 160.85955311 C101.47442407 172.4817935 89.83728671 184.10530662 78.2006073 195.72927856 C77.70234306 196.22699668 77.20407883 196.7247148 76.69071568 197.23751529 C65.31131064 208.60447043 53.93250332 219.97202346 42.55487347 231.34075546 C42.07642136 231.81883217 41.59796926 232.29690888 41.10501861 232.78947276 C36.80051926 237.0906053 32.49604407 241.39176201 28.19169565 245.69304559 C17.00178656 256.8749837 5.80995906 268.05499346 -5.3853114 279.23156396 C-12.41059593 286.24527824 -19.43418426 293.26068793 -26.45644381 300.27743086 C-30.50858213 304.3262383 -34.56156423 308.37419204 -38.61676216 312.41993523 C-42.33053042 316.12506039 -46.04197825 319.83249369 -49.75161628 323.54175398 C-51.09264532 324.88181883 -52.43452723 326.22103087 -53.77735593 327.55929235 C-62.61664086 336.33221926 -62.61664086 336.33221926 -70.93042749 345.59849334 C-73.78130125 348.90763721 -76.9170772 351.95121082 -80.00862122 355.03347778 C-80.7395549 355.76616379 -81.47048859 356.49884979 -82.22357178 357.2537384 C-84.61313593 359.64766448 -87.0062918 362.0379612 -89.3997345 364.42800903 C-91.0689989 366.09794759 -92.73811487 367.76803452 -94.40708923 369.43826294 C-97.89032022 372.92296277 -101.37534027 376.40586066 -104.86164856 379.88748169 C-109.34097811 384.36108333 -113.81576182 388.83920104 -118.2892437 393.31864929 C-121.72737138 396.76037813 -125.16786183 400.19973705 -128.6090889 403.6383667 C-130.26133351 405.28994241 -131.91283061 406.94226629 -133.56357956 408.59533691 C-135.85926383 410.89354373 -138.15809938 413.18854974 -140.45783997 415.48269653 C-141.14455276 416.17143356 -141.83126556 416.86017059 -142.53878784 417.56977844 C-143.16110794 418.18927872 -143.78342804 418.80877899 -144.42460632 419.447052 C-144.96766859 419.98973724 -145.51073086 420.53242249 -146.07024956 421.09155273 C-147.345047 422.24050903 -147.345047 422.24050903 -148.345047 422.24050903 C-148.45968978 384.34573318 -148.54769583 346.45098363 -148.60037364 308.55606921 C-148.60662658 304.07417321 -148.61309825 299.59227756 -148.6197052 295.11038208 C-148.62101675 294.21818155 -148.6223283 293.32598101 -148.6236796 292.4067441 C-148.64538916 277.99270599 -148.68478594 263.5787684 -148.73081098 249.16478976 C-148.77769986 234.35589177 -148.80536856 219.54704615 -148.81548947 204.73807698 C-148.82232296 195.61269062 -148.84384289 186.48758845 -148.88462933 177.36228964 C-148.91122153 171.0901947 -148.91901107 164.81824496 -148.91255388 158.54609784 C-148.90937635 154.93654965 -148.91396951 151.32749522 -148.94107437 147.71803665 C-149.05189166 132.18258756 -148.57517905 117.97896551 -143.345047 103.24050903 C-143.10602398 102.55842105 -142.86700095 101.87633307 -142.62073481 101.17357576 C-135.0088352 79.74426107 -123.05055513 61.52770265 -107.345047 45.24050903 C-106.62961731 44.46191528 -105.91418762 43.68332153 -105.17707825 42.88113403 C-78.83545263 15.00744388 -37.88265777 -0.20680297 0 0 Z " fill="#373435" transform="translate(380.3450469970703,190.75949096679688)"></path><path d="M0 0 C0.98210449 0.00563965 1.96420898 0.0112793 2.97607422 0.01708984 C9.8065692 0.13174499 15.89999608 0.62164761 22.25 3.3125 C23.22839844 3.7146875 24.20679688 4.116875 25.21484375 4.53125 C32.7519452 7.95288496 38.45705263 12.44675078 44.25 18.3125 C44.81332031 18.85390625 45.37664062 19.3953125 45.95703125 19.953125 C56.881661 31.36777772 59.78145235 46.20272716 59.4921875 61.359375 C58.89428883 77.07049464 51.69035265 90.6436185 40.25 101.3125 C26.57771673 112.80351439 10.77084376 116.44878903 -6.75 115.3125 C-22.18457472 113.22160934 -35.47271696 104.44741723 -45.0625 92.375 C-55.01547805 78.14842685 -57.2191678 63.33960044 -55.75 46.3125 C-52.95534009 30.97514027 -43.18024279 18.40348798 -30.8828125 9.4296875 C-21.01583567 2.76148121 -11.87808582 -0.07071492 0 0 Z " fill="#373435" transform="translate(147.75,198.6875)"></path><path d="M0 0 C8.42326853 4.69516632 13.21592855 11.18772258 16.34765625 20.30859375 C17.68963446 27.88560917 16.10860194 34.65800651 12.34765625 41.30859375 C7.35202592 48.31215298 1.68764194 52.90107047 -6.65234375 55.30859375 C-15.54644562 56.38085222 -22.14493156 55.16798813 -29.65234375 50.30859375 C-30.58046875 49.71046875 -31.50859375 49.11234375 -32.46484375 48.49609375 C-38.79794833 42.16298917 -41.64319502 34.84336587 -42.02734375 25.93359375 C-41.83414948 17.62624027 -38.46486853 11.18615756 -32.82421875 5.171875 C-22.96424336 -3.28713267 -11.82989817 -5.41813086 0 0 Z " fill="#393637" transform="translate(159.65234375,115.69140625)"></path><path d="M0 0 C6.27607942 4.6422706 9.57039743 10.71119229 12 18 C12.93574928 27.08137003 11.34711087 35.95645644 5.75 43.375 C-1.98226162 50.75579518 -10.0145078 53.56935407 -20.6796875 53.375 C-28.30791725 52.51345876 -34.37007798 48.51944444 -39.53125 42.96875 C-44.99108483 35.650248 -47.16182508 26.99004453 -46 18 C-42.93214399 8.88699599 -38.04371958 2.3190919 -29.6171875 -2.30859375 C-19.01817091 -7.10971569 -10.02981457 -5.60198388 0 0 Z " fill="#393637" transform="translate(160,343)"></path></svg>