<svg width="1600" height="900" viewBox="0 0 1600 900" fill="none" xmlns="http://www.w3.org/2000/svg">
  <defs>
    <linearGradient id="v3a" x1="0" y1="0" x2="1" y2="1">
      <stop offset="0%" stop-color="#22D3EE"/>
      <stop offset="100%" stop-color="#0284C7"/>
    </linearGradient>
    <linearGradient id="v3b" x1="0" y1="0" x2="1" y2="1">
      <stop offset="0%" stop-color="#FACC15"/>
      <stop offset="100%" stop-color="#EAB308"/>
    </linearGradient>
    <linearGradient id="v3c" x1="0" y1="0" x2="1" y2="1">
      <stop offset="0%" stop-color="#FB7185"/>
      <stop offset="100%" stop-color="#DC2626"/>
    </linearGradient>
  </defs>
  <rect width="1600" height="900" rx="36" fill="#F8FAFC"/>
  <rect x="56" y="56" width="1488" height="788" rx="30" fill="#FFFFFF"/>
  <rect x="120" y="120" width="700" height="660" rx="26" fill="#FFFFFF"/>
  <rect x="844" y="120" width="636" height="660" rx="26" fill="#FFFFFF"/>
  <rect x="176" y="182" width="404" height="56" rx="14" fill="#0EA5E9" fill-opacity="0.16"/>
  <rect x="176" y="262" width="476" height="34" rx="10" fill="#0EA5E9" fill-opacity="0.10"/>
  <rect x="176" y="312" width="398" height="34" rx="10" fill="#0EA5E9" fill-opacity="0.10"/>
  <rect x="176" y="392" width="230" height="54" rx="14" fill="url(#v3a)"/>
  <rect x="426" y="392" width="230" height="54" rx="14" fill="#F8FAFC"/>
  <circle cx="1108" cy="286" r="156" fill="#E0F2FE"/>
  <circle cx="1108" cy="286" r="108" fill="#FFFFFF"/>
  <circle cx="1108" cy="286" r="64" fill="url(#v3a)" fill-opacity="0.68"/>
  <rect x="920" y="486" width="482" height="228" rx="22" fill="#F8FAFC"/>
  <rect x="962" y="528" width="126" height="136" rx="16" fill="url(#v3a)" fill-opacity="0.72"/>
  <rect x="1106" y="528" width="126" height="136" rx="16" fill="url(#v3b)" fill-opacity="0.66"/>
  <rect x="1250" y="528" width="110" height="136" rx="16" fill="url(#v3c)" fill-opacity="0.62"/>
  <rect x="176" y="506" width="144" height="156" rx="18" fill="#E0F2FE"/>
  <rect x="338" y="506" width="144" height="156" rx="18" fill="#FEF3C7"/>
  <rect x="500" y="506" width="144" height="156" rx="18" fill="#FEE2E2"/>
  <text x="176" y="740" fill="#0F172A" font-family="Geist, Arial, sans-serif" font-size="52" font-weight="800">KOTACOM</text>
  <text x="448" y="740" fill="#475569" font-family="Geist, Arial, sans-serif" font-size="26" font-weight="600">PRODUKSI CETAK BUKU MODERN DAN TERUKUR</text>
</svg>
