<svg width="1600" height="900" viewBox="0 0 1600 900" fill="none" xmlns="http://www.w3.org/2000/svg">
  <defs>
    <linearGradient id="g1" x1="0" y1="0" x2="1" y2="1">
      <stop offset="0%" stop-color="#22D3EE"/>
      <stop offset="100%" stop-color="#0EA5E9"/>
    </linearGradient>
    <linearGradient id="g2" x1="0" y1="0" x2="1" y2="1">
      <stop offset="0%" stop-color="#A78BFA"/>
      <stop offset="100%" stop-color="#6366F1"/>
    </linearGradient>
    <linearGradient id="g3" x1="0" y1="0" x2="1" y2="1">
      <stop offset="0%" stop-color="#34D399"/>
      <stop offset="100%" stop-color="#10B981"/>
    </linearGradient>
    <linearGradient id="brand" x1="220" y1="676" x2="520" y2="742">
      <stop offset="0%" stop-color="#0EA5E9"/>
      <stop offset="50%" stop-color="#8B5CF6"/>
      <stop offset="100%" stop-color="#10B981"/>
    </linearGradient>
  </defs>

  <rect width="1600" height="900" rx="36" fill="#F8FAFC"/>
  <rect x="44" y="44" width="1512" height="812" rx="30" fill="#FFFFFF"/>

  <rect x="118" y="118" width="1364" height="664" rx="26" fill="#F8FAFC"/>
  <rect x="176" y="174" width="796" height="552" rx="22" fill="#FFFFFF"/>
  <rect x="1004" y="174" width="420" height="552" rx="22" fill="#FFFFFF"/>

  <rect x="226" y="234" width="410" height="50" rx="12" fill="#0EA5E9" fill-opacity="0.14"/>
  <rect x="226" y="302" width="560" height="34" rx="10" fill="#0EA5E9" fill-opacity="0.10"/>
  <rect x="226" y="352" width="484" height="34" rx="10" fill="#0EA5E9" fill-opacity="0.10"/>

  <rect x="226" y="430" width="250" height="52" rx="14" fill="url(#g1)"/>
  <rect x="496" y="430" width="250" height="52" rx="14" fill="#EEF2FF"/>

  <rect x="226" y="530" width="220" height="154" rx="18" fill="#ECFEFF"/>
  <rect x="468" y="530" width="220" height="154" rx="18" fill="#F5F3FF"/>
  <rect x="710" y="530" width="220" height="154" rx="18" fill="#ECFDF5"/>

  <rect x="1048" y="234" width="332" height="184" rx="18" fill="url(#g1)" fill-opacity="0.22"/>
  <rect x="1078" y="266" width="170" height="120" rx="12" fill="url(#g1)" fill-opacity="0.55"/>
  <rect x="1264" y="266" width="86" height="120" rx="12" fill="#CFFAFE"/>

  <rect x="1048" y="452" width="332" height="232" rx="18" fill="#F8FAFC"/>
  <rect x="1084" y="494" width="260" height="26" rx="8" fill="url(#g2)" fill-opacity="0.35"/>
  <rect x="1084" y="534" width="216" height="26" rx="8" fill="url(#g2)" fill-opacity="0.25"/>
  <rect x="1084" y="574" width="240" height="26" rx="8" fill="url(#g3)" fill-opacity="0.24"/>
  <rect x="1084" y="614" width="184" height="26" rx="8" fill="url(#g3)" fill-opacity="0.18"/>

  <rect x="294" y="560" width="84" height="108" rx="8" fill="#0891B2" fill-opacity="0.18"/>
  <rect x="536" y="560" width="84" height="108" rx="8" fill="#7C3AED" fill-opacity="0.16"/>
  <rect x="778" y="560" width="84" height="108" rx="8" fill="#059669" fill-opacity="0.16"/>

  <text x="226" y="760" fill="url(#brand)" font-family="Geist, Arial, sans-serif" font-size="50" font-weight="800">KOTACOM</text>
  <text x="490" y="760" fill="#334155" font-family="Geist, Arial, sans-serif" font-size="26" font-weight="600">JASA PERCETAKAN BUKU MODERN</text>
</svg>
