<svg width="1200" height="675" viewBox="0 0 1200 675" fill="none" xmlns="http://www.w3.org/2000/svg">
  <rect width="1200" height="675" rx="28" fill="#ECFDF5"/>
  <rect x="46" y="46" width="1108" height="583" rx="24" fill="#A7F3D0"/>
  <rect x="122" y="112" width="956" height="451" rx="20" fill="white"/>
  <rect x="190" y="182" width="356" height="308" rx="16" fill="#10B981" fill-opacity="0.14"/>
  <rect x="232" y="224" width="270" height="36" rx="10" fill="#059669" fill-opacity="0.28"/>
  <rect x="232" y="276" width="220" height="24" rx="8" fill="#059669" fill-opacity="0.18"/>
  <rect x="232" y="314" width="260" height="24" rx="8" fill="#059669" fill-opacity="0.18"/>
  <rect x="574" y="182" width="436" height="308" rx="16" fill="#ECFDF5"/>
  <rect x="618" y="224" width="348" height="24" rx="8" fill="#34D399" fill-opacity="0.45"/>
  <rect x="618" y="262" width="286" height="24" rx="8" fill="#34D399" fill-opacity="0.35"/>
  <rect x="618" y="300" width="312" height="24" rx="8" fill="#34D399" fill-opacity="0.35"/>
  <rect x="618" y="338" width="236" height="24" rx="8" fill="#34D399" fill-opacity="0.35"/>
</svg>
