<svg width="1200" height="675" viewBox="0 0 1200 675" fill="none" xmlns="http://www.w3.org/2000/svg">
  <defs>
    <linearGradient id="b1" x1="0" y1="0" x2="1" y2="1">
      <stop offset="0%" stop-color="#A78BFA"/>
      <stop offset="100%" stop-color="#6366F1"/>
    </linearGradient>
  </defs>
  <rect width="1200" height="675" rx="28" fill="#F8FAFC"/>
  <rect x="52" y="52" width="1096" height="571" rx="24" fill="#FFFFFF"/>
  <rect x="110" y="116" width="980" height="443" rx="20" fill="#F5F3FF"/>

  <rect x="176" y="184" width="420" height="312" rx="18" fill="url(#b1)" fill-opacity="0.22"/>
  <rect x="216" y="224" width="88" height="236" rx="8" fill="#7C3AED" fill-opacity="0.32"/>
  <rect x="316" y="224" width="88" height="236" rx="8" fill="#A78BFA" fill-opacity="0.55"/>
  <rect x="416" y="224" width="88" height="236" rx="8" fill="#C4B5FD"/>

  <rect x="628" y="184" width="396" height="52" rx="12" fill="#4338CA" fill-opacity="0.16"/>
  <rect x="628" y="256" width="300" height="34" rx="10" fill="#4338CA" fill-opacity="0.12"/>
  <rect x="628" y="306" width="270" height="34" rx="10" fill="#4338CA" fill-opacity="0.12"/>
  <rect x="628" y="356" width="238" height="34" rx="10" fill="#4338CA" fill-opacity="0.12"/>
  <rect x="628" y="406" width="206" height="34" rx="10" fill="#4338CA" fill-opacity="0.12"/>

  <text x="176" y="528" fill="#0F172A" font-family="Geist, Arial, sans-serif" font-size="28" font-weight="700">Cetak Buku Massal (Offset)</text>
</svg>
