<svg width="1200" height="675" viewBox="0 0 1200 675" fill="none" xmlns="http://www.w3.org/2000/svg">
  <defs>
    <linearGradient id="c1" x1="0" y1="0" x2="1" y2="1">
      <stop offset="0%" stop-color="#34D399"/>
      <stop offset="100%" stop-color="#10B981"/>
    </linearGradient>
  </defs>
  <rect width="1200" height="675" rx="28" fill="#F8FAFC"/>
  <rect x="52" y="52" width="1096" height="571" rx="24" fill="#FFFFFF"/>
  <rect x="110" y="116" width="980" height="443" rx="20" fill="#ECFDF5"/>

  <rect x="176" y="184" width="420" height="312" rx="18" fill="url(#c1)" fill-opacity="0.20"/>
  <rect x="220" y="226" width="332" height="228" rx="14" fill="#D1FAE5"/>
  <rect x="250" y="258" width="272" height="28" rx="8" fill="#059669" fill-opacity="0.24"/>
  <rect x="250" y="300" width="236" height="28" rx="8" fill="#059669" fill-opacity="0.20"/>
  <rect x="250" y="342" width="204" height="28" rx="8" fill="#059669" fill-opacity="0.20"/>
  <circle cx="504" cy="392" r="24" fill="#34D399" fill-opacity="0.55"/>

  <rect x="628" y="184" width="396" height="52" rx="12" fill="#047857" fill-opacity="0.16"/>
  <rect x="628" y="256" width="320" height="34" rx="10" fill="#047857" fill-opacity="0.12"/>
  <rect x="628" y="306" width="286" height="34" rx="10" fill="#047857" fill-opacity="0.12"/>
  <rect x="628" y="356" width="254" height="34" rx="10" fill="#047857" fill-opacity="0.12"/>
  <rect x="628" y="406" width="222" height="34" rx="10" fill="#047857" fill-opacity="0.12"/>

  <text x="176" y="528" fill="#0F172A" font-family="Geist, Arial, sans-serif" font-size="28" font-weight="700">Finishing &amp; Jilid Premium</text>
</svg>
