<svg width="1200" height="675" viewBox="0 0 1200 675" fill="none" xmlns="http://www.w3.org/2000/svg">
  <rect width="1200" height="675" rx="28" fill="#F8FAFC"/>
  <rect x="52" y="52" width="1096" height="571" rx="24" fill="#FFFFFF"/>
  <rect x="116" y="116" width="968" height="443" rx="20" fill="#F8FAFC"/>
  <rect x="176" y="188" width="270" height="300" rx="18" fill="#FFFFFF"/>
  <rect x="206" y="220" width="70" height="70" rx="35" fill="#0EA5E9" fill-opacity="0.24"/>
  <rect x="296" y="228" width="110" height="20" rx="8" fill="#111827" fill-opacity="0.12"/>
  <rect x="296" y="262" width="88" height="18" rx="7" fill="#111827" fill-opacity="0.08"/>
  <rect x="206" y="326" width="200" height="22" rx="8" fill="#0EA5E9" fill-opacity="0.10"/>
  <rect x="206" y="362" width="186" height="22" rx="8" fill="#0EA5E9" fill-opacity="0.10"/>
  <rect x="206" y="398" width="160" height="22" rx="8" fill="#0EA5E9" fill-opacity="0.10"/>
  <rect x="466" y="188" width="270" height="300" rx="18" fill="#FFFFFF"/>
  <rect x="496" y="220" width="70" height="70" rx="35" fill="#FACC15" fill-opacity="0.34"/>
  <rect x="586" y="228" width="110" height="20" rx="8" fill="#111827" fill-opacity="0.12"/>
  <rect x="586" y="262" width="88" height="18" rx="7" fill="#111827" fill-opacity="0.08"/>
  <rect x="496" y="326" width="200" height="22" rx="8" fill="#FACC15" fill-opacity="0.16"/>
  <rect x="496" y="362" width="186" height="22" rx="8" fill="#FACC15" fill-opacity="0.16"/>
  <rect x="496" y="398" width="160" height="22" rx="8" fill="#FACC15" fill-opacity="0.16"/>
  <rect x="756" y="188" width="270" height="300" rx="18" fill="#FFFFFF"/>
  <rect x="786" y="220" width="70" height="70" rx="35" fill="#EF4444" fill-opacity="0.24"/>
  <rect x="876" y="228" width="110" height="20" rx="8" fill="#111827" fill-opacity="0.12"/>
  <rect x="876" y="262" width="88" height="18" rx="7" fill="#111827" fill-opacity="0.08"/>
  <rect x="786" y="326" width="200" height="22" rx="8" fill="#EF4444" fill-opacity="0.12"/>
  <rect x="786" y="362" width="186" height="22" rx="8" fill="#EF4444" fill-opacity="0.12"/>
  <rect x="786" y="398" width="160" height="22" rx="8" fill="#EF4444" fill-opacity="0.12"/>
  <text x="176" y="536" fill="#0F172A" font-family="Geist, Arial, sans-serif" font-size="30" font-weight="700">Trust &amp; Social Proof Cetak Buku</text>
</svg>
